<?xml version="1.0" encoding="utf-8"?>
<!-- Generator: Adobe Illustrator 26.1.0, SVG Export Plug-In . SVG Version: 6.00 Build 0)  -->
<svg version="1.1" id="Слой_1" xmlns="http://www.w3.org/2000/svg" xmlns:xlink="http://www.w3.org/1999/xlink" x="0px" y="0px"
	 viewBox="0 0 459 449" style="enable-background:new 0 0 459 449;" xml:space="preserve">
<style type="text/css">
	.st0{fill:#F0F0F0;stroke:#333333;stroke-width:3;}
	.st1{fill:#343434;}
	.st2{fill:#EB7C2C;stroke:#EB7C2C;}
</style>
<path class="st0" d="M348.4,153.8c7,7.9,7.5,17.9,8.7,27.5c1.9,14.7,0.3,29-5.4,42.7c-4,9.7-10.8,16.6-21.4,18.6
	c-4.3,0.8-5,3.2-5.6,6.8c-4.5,24.6-2.6,49.2-0.5,73.8c1.5,17.2,4.1,34.3,6.2,51.5c-0.5,2.5-0.1,4.7,1.5,6.9c2,2.9,8.2,3.7,6.3,8.2
	c-1.3,3.2-5.2,5.3-8.1,8c-2.2,2-4.6,4-6.9,5.9c-24.5,20.4-50.7,37.4-82.4,44.3c-22.2,4.9-43.7,2.7-63.4-9.2
	c-11.3-6.8-14.1-15.4-11.2-28.1c1.5-6.4,3.2-12.8,2-19.4c-2.2-25.8-10.1-50.4-17.1-75.2c-3.7-13.2-8.2-26.1-12.6-39
	c-0.8-2.3-0.6-5.6-5.6-5.2c-13.9,1-15.5-0.5-21.1-14.1c1.3-7.7,6.9-4.7,11.5-3.8c-0.3-20.6-3.2-40-5.1-59.6
	c-1-9.7-3.7-19.5-0.4-29.3c0.5-1.5,0.8-3.4,3-3.1c1.8,0.2,1.5,2,1.7,3.3c0.8,4.5,1.4,9,2.1,14.1c8.8-3.6,11.4-13.2,19.1-17.1
	c7.6-3.8,15.2-6.8,24.3-4.3c-2.5,4-6.2,4.6-9.4,5.7c-6.7,2.3-12,6.4-16.3,11.9c-4.3,5.6-5.8,12.1-1.6,17.4c3.4,4.3,9,0.5,13.5-0.9
	c3.1-1,6-2.3,9.5-2.1c4.6,0.2,5.6,1.7,4,6.1c-4.4,11.3-4.2,11.3,8.2,14c4.5,1,9.3,2.4,9.1,7.8c-0.4,11.4,1.9,23.3-5.1,33.6
	c-2.7,4.1-0.5,4.8,2.7,4.9c8.6,0.1,16-2.8,22.1-9.1c3.1-3.2,4.1-7,2.8-10.5c-1.4-3.8-5.7-2.5-8.6-2c-7.7,1.3-9.2-2.6-6.8-8.4
	c7.5-17.8,8.3-35.9,6.1-54.9c-2-18-11-27.2-29.2-27.2c-3.6,0-7.2-0.4-10.7,0.1c-8.1,1-16.4-0.1-23.5,5.7c-5.8,4.8-15.1,0.6-14.8-6.8
	c0.5-11.1-2.1-21.8-2.7-32.6c-0.2-3.7-0.1-7.4,3.1-9.7c13.5-9.7,26.2-21.1,42.6-25.9c31.1-9.1,62.5-16.4,94.9-19.5
	c12.3-1.2,19.8,3.1,25.2,14.2c3.4,7.2,6.4,14.6,9.3,21.9c3.2,8.2,4.8,17.2,9.2,24.5c6.3,10.1,9.5,20.8,11.8,32.1
	c3.2,15.5,4.4,31.6,11.5,46.1c0.8,1.7,0.9,4,3.5,3.8c1.6-0.1,2.5-1.5,2.6-2.7c0.6-10.4,7.5-19.1,7.2-29.7c-0.1-3.2,0-8,4.8-6.4
	C350.4,161.4,347.2,155.9,348.4,153.8z M257.8,153.6c2.7-2.8,6,0.4,7.7-2.6c-8.3-3.2-17.9-3.5-26.5-0.8c-10.4,3.2-13.1,8.4-9.5,18.5
	c2.9,8.2,12.4,12.9,20,8.7c8.5-4.8,17.1-8.6,26.5-10.5c1.7-0.4,3.2-0.8,3.4-2.9c0.2-2.2-1.9-2.5-3.2-3.1
	C270.1,158.4,264.1,156.1,257.8,153.6z M206.8,260.5c-5.6,0.9-9.8,1.1-13.6,2.2c-5,1.6-14,1.2-13.9,5.4c0.1,5.7,8,8.8,13.7,11.2
	c6.4,2.6,14.5,2.5,18.3-2c3.8-4.6,7.7-5.3,12.2-6.5c10.9-2.6,22.2-2.9,32.8-6.9c2-0.8,6-1.1,5.2-4.1c-0.9-3.5-4.8-2.2-7.2-1.7
	C238.2,261.9,222.1,267.4,206.8,260.5z M281,137.7c-6-1.4-11.2-4.6-16.7-6.1c-11.2-3.2-22.2-0.5-32.7,3.7c-3.3,1.4-6.2,4.6-5,8.4
	c1.5,4.4,5.5,3.3,9.1,2.7c6.7-1.1,13.6-1.6,20.2-3C264.2,141.8,273.1,142.8,281,137.7z M202.1,353.2c4.1-0.9,8.8-1.9,13.7-3
	c2.1-0.5,4.8-1.3,5.3-3.3c0.8-2.8-2-4.5-4-5.5c-8.6-4.7-17.5-8.9-26.2-13.5c-1.6-0.8-2.5-0.5-3.5,0.7c-1,1.2-0.6,2.5,0,3.8
	c2.6,5.7,5.2,11.4,8,17.1C196.5,351.9,198.8,352.6,202.1,353.2z"/>
<path class="st1" d="M348.4,153.8c-1.2,2.1,2,7.8-5.1,5.3c-4.8-1.7-4.9,3.2-4.8,6.4c0.3,10.6-6.6,19.3-7.2,29.7
	c-0.1,1.4-1.1,2.6-2.6,2.7c-2.6,0.2-2.7-2.2-3.5-3.8c-7.1-14.6-8.3-30.6-11.5-46.1c-2.3-11.4-5.5-22-11.8-32.1
	c-4.5-7.3-6.1-16.3-9.2-24.5c-2.9-7.4-5.9-14.8-9.3-21.9c-5.2-11.2-12.8-15.4-25.2-14.2c-32.3,3.1-63.8,10.4-94.9,19.5
	c-16.5,4.9-29.1,16.1-42.6,25.9c-3.2,2.3-3.3,5.9-3.1,9.7c0.6,10.9,3.2,21.6,2.7,32.6c-0.4,7.5,8.9,11.6,14.8,6.8
	c7.1-5.8,15.4-4.8,23.5-5.7c3.5-0.4,7.1-0.1,10.7-0.1c18.3,0,27.2,9.1,29.2,27.2c2.1,18.9,1.4,37.1-6.1,54.9
	c-2.4,5.7-0.9,9.7,6.8,8.4c2.9-0.5,7.3-1.7,8.6,2c1.3,3.6,0.3,7.4-2.8,10.5c-6.1,6.3-13.5,9.2-22.1,9.1c-3.3,0-5.5-0.8-2.7-4.9
	c7-10.3,4.6-22.2,5.1-33.6c0.2-5.3-4.8-6.8-9.1-7.8c-12.3-2.7-12.5-2.7-8.2-14c1.7-4.5,0.6-5.9-4-6.1c-3.5-0.2-6.4,1.2-9.5,2.1
	c-4.5,1.5-10.1,5.1-13.5,0.9c-4.3-5.2-2.7-11.8,1.6-17.4c4.3-5.6,9.6-9.6,16.3-11.9c3.2-1.2,6.9-1.7,9.4-5.7
	c-9.1-2.5-16.6,0.5-24.3,4.3c-7.8,3.8-10.3,13.4-19.1,17.1c-0.8-5.1-1.5-9.5-2.1-14.1c-0.2-1.3,0.2-3-1.7-3.3
	c-2.2-0.3-2.5,1.7-3,3.1c-3.3,9.8-0.6,19.6,0.4,29.3c1.9,19.6,4.9,39.1,5.1,59.6c-4.6-0.8-10.2-3.8-11.5,3.8
	c-11.5-9.5-14.8-23-17.6-36.6c-2.1-10.3-1.4-20.6-0.2-31c2.2-19.8-3.6-39.1-5.5-58.7c-1.6-15.2-0.3-29.4,5.7-43.3
	c3.8-8.7,8.6-17.2,12-26.1c5.4-14.9,16.7-24,29.1-32.3c4.6-3.1,9.3-5.8,13.4-9.5C171.6-0.4,199,4.2,225.5,4.2
	c21.6,0,40.6,8.9,58.3,19.9c33.7,21,52.1,52,56.7,91.4C341.7,128.5,342.9,141.6,348.4,153.8z"/>
<path class="st2" d="M168.3,391.2c1.3,6.7-0.6,13.1-2,19.4c-2.9,12.6,0,21.3,11.2,28.1c19.8,11.9,41.2,14.1,63.5,9.2
	c31.7-6.9,58-24,82.4-44.3c2.3-1.9,4.7-3.9,6.9-5.9c2.8-2.5,6.8-4.8,8.1-8c1.7-4.6-4.3-5.2-6.3-8.2c-1.6-2.2-1.9-4.5-1.5-6.9
	c13.9-6.9,25.2-3.7,32.4,9.8c2.9,5.3,7.1,9,12.2,11.8c18.3,10,36.5,20.1,54.9,29.9c3.8,2,8.2,3.1,12.3,4.4c5.6,1.7,10.8,4,14.8,8.4
	c3.6,4,8.5,5.8,13.2,8.3c24.3,12.7,50,22.8,71.1,41.1c23.8,20.7,43.5,44.2,51.2,75.8c0.3,1.4,0.8,2.6,1.1,4c0.4,2.7-0.2,5.1-3.2,5.7
	c-3.1,0.8-4.6-1.1-5.3-3.7c-1.5-5.2-2.4-10.8-4.6-15.7c-14.5-34.2-39.1-59.1-71.2-77.1c-12.9-7.2-26.3-13.5-39.5-20.3
	c-7.3-3.7-14.9-7-20.6-13.3c-1.6-1.7-4.1-2.8-6.4-3.5c-27.4-8.4-50.3-25.4-75.4-38.2c-5.5-2.8-9.2-7.7-12.1-13.1
	c-1.8-3.4-3.5-6.9-8.9-7.8c5.5,9.1,0.3,14.3-5.8,19.6c-25.2,22-51.6,41.9-84,52.2c-22.5,7.2-45.2,8.6-67.9,0.8
	c-24.9-8.6-32.6-19.8-31.6-45.7c-0.8,0.3-1.7,0.4-2.2,0.9c-22.2,22.4-51.9,32-79.1,45.8C50,468,24.4,481.8-1.2,495.4
	c-4.2,2.2-7.8,5.3-9.9,9.6c-11,21.9-21.3,43.9-27.8,67.6c-1.7,6.4-3,12.8-1.9,19.5c0.5,3,0.1,5.8-3.3,6.5c-4,0.8-5.1-2.5-5.7-5.5
	c-1.4-7.2,0.1-14.3,1.8-21.2c6.6-25.1,17.5-48.5,29-71.5c3.2-6.3,8.8-10.4,15-13.8c39.1-21.8,79.2-41.9,119.7-60.8
	c16.5-7.7,28-20.9,42-31.2C160.8,391.9,163.8,389.3,168.3,391.2z"/>
<path class="st2" d="M349.2,404.6c3.7,1.3,5.5,3.7,2.9,7.3c-2.4,3.3-5.5,6.1-8.4,8.9c-15.6,15.3-33.3,27.7-53,37.1
	c-3,1.5-7,4.4-9.3-0.1c-2.6-5.1,2.3-6.3,5.7-8c21-10.1,39.4-23.7,55.6-40.4C344.3,407.4,345.8,404.9,349.2,404.6z"/>
<path class="st2" d="M249.7,472c-3.8,0.3-5.7-0.4-6.4-3c-0.7-2.6,0.8-4.4,3-5.1c4.5-1.4,8.9-2.5,13.5-3.5c2.4-0.5,4.5,0.5,5,3.1
	c0.5,2.4-0.4,4.4-2.9,5.1C257.5,469.9,252.9,471.2,249.7,472z"/>
<path class="st1" d="M257.8,153.6c6.4,2.5,12.4,5,18.4,7.5c1.4,0.6,3.4,0.8,3.2,3.1c-0.2,2-1.7,2.5-3.4,2.9
	c-9.5,1.9-18.1,5.8-26.5,10.5c-7.6,4.3-17.1-0.6-20-8.7c-3.6-10.1-1-15.3,9.5-18.5c8.6-2.7,18.4-2.4,26.5,0.8
	C263.7,154,260.4,150.7,257.8,153.6z"/>
<path class="st1" d="M206.8,260.5c15.3,7,31.4,1.4,47.7-2.4c2.3-0.6,6.3-1.7,7.2,1.7c0.8,3-3.2,3.3-5.2,4.1
	c-10.6,4.1-22,4.3-32.8,6.9c-4.6,1.2-8.5,1.9-12.2,6.5c-3.8,4.6-11.8,4.7-18.3,2c-5.7-2.3-13.6-5.4-13.7-11.2
	c-0.1-4.3,8.9-3.9,13.9-5.4C197,261.5,201.2,261.4,206.8,260.5z"/>
<path class="st1" d="M281,137.7c-7.9,5.1-16.7,4.2-25,5.8c-6.7,1.4-13.5,1.9-20.2,3c-3.6,0.6-7.7,1.7-9.1-2.7
	c-1.3-3.9,1.7-7.2,5-8.5c10.5-4.3,21.5-6.9,32.7-3.7C269.8,133.1,275,136.3,281,137.7z"/>
<path class="st1" d="M202.1,353.2c-3.3-0.5-5.6-1.3-6.8-3.8c-2.7-5.6-5.2-11.4-8-17.1c-0.6-1.3-1-2.6,0-3.8c1-1.1,1.9-1.5,3.5-0.7
	c8.7,4.6,17.6,8.8,26.2,13.5c1.9,1.1,4.8,2.7,4,5.5c-0.6,2-3.1,2.8-5.3,3.3C211.1,351.2,206.2,352.3,202.1,353.2z"/>
</svg>
